<svg id="Layer_1" data-name="Layer 1" xmlns="http://www.w3.org/2000/svg" viewBox="0 0 140 22.34"><defs><style>.cls-1{fill:#6d6e70;}.cls-2{fill:#404041;}</style></defs><title>freeman-text-dark</title><path class="cls-1" d="M30.37,15.3,32,21.16h0l1.72-5.86h.83l1.72,5.86h0L38,15.3h.77l-2,6.85h-.81l-1.72-5.86h0l-1.72,5.86h-.81l-2-6.85Z" transform="translate(-0.3 0.02)"/><path class="cls-1" d="M43.47,20.06H39.71a1.8,1.8,0,0,0,.52,1.16,1.54,1.54,0,0,0,1.13.47,1.58,1.58,0,0,0,1.44-.78l.49.41a2.37,2.37,0,0,1-1.94,1,2.25,2.25,0,0,1-1.67-.68,2.51,2.51,0,0,1,0-3.4,2.17,2.17,0,0,1,1.63-.68,2,2,0,0,1,1.6.67,2.29,2.29,0,0,1,.57,1.6Zm-3.75-.52h3.06a1.43,1.43,0,0,0-.4-1.05,1.45,1.45,0,0,0-1.07-.4,1.58,1.58,0,0,0-1.1.45A1.34,1.34,0,0,0,39.71,19.53Z" transform="translate(-0.3 0.02)"/><path class="cls-1" d="M47.22,19.37h.32v-.12a1,1,0,0,0-1.16-1.17,2,2,0,0,0-1.38.53l-.39-.45a2.55,2.55,0,0,1,1.92-.66,1.71,1.71,0,0,1,1.16.39,1.54,1.54,0,0,1,.49,1.22v2a6.4,6.4,0,0,0,.08,1h-.64a4.23,4.23,0,0,1-.06-.74h0a1.91,1.91,0,0,1-2.66.52,1.2,1.2,0,0,1-.47-1,1.34,1.34,0,0,1,1-1.33A5.46,5.46,0,0,1,47.22,19.37Zm.32.52h-.33q-2.11,0-2.11,1a.72.72,0,0,0,.34.64,1.47,1.47,0,0,0,1.76-.23,1.54,1.54,0,0,0,.34-1Z" transform="translate(-0.3 0.02)"/><path class="cls-1" d="M50.43,14.83v7.31h-.64V14.83Z" transform="translate(-0.3 0.02)"/><path class="cls-1" d="M54.31,17.62v.58H53v2.67a.92.92,0,0,0,.18.66.63.63,0,0,0,.47.15,1.36,1.36,0,0,0,.66-.17l0,.59a2.06,2.06,0,0,1-.86.16q-1.12,0-1.12-1.21V18.2h-1v-.58h1V16.34H53v1.28Z" transform="translate(-0.3 0.02)"/><path class="cls-1" d="M55.19,22.14V14.83h.64v3.51a1.64,1.64,0,0,1,.64-.6,1.81,1.81,0,0,1,.89-.24,1.54,1.54,0,0,1,1.71,1.77v2.87h-.64V19.64a2,2,0,0,0-.27-1.18,1.09,1.09,0,0,0-1-.38,1.26,1.26,0,0,0-.74.25,1.69,1.69,0,0,0-.64,1.49v2.32Z" transform="translate(-0.3 0.02)"/><path class="cls-1" d="M67.33,16l-.61.47a1.49,1.49,0,0,0-1.33-.67,1.63,1.63,0,0,0-1,.3,1.1,1.1,0,0,0-.46.94,1.24,1.24,0,0,0,.91,1.14l1.69.65a1.65,1.65,0,0,1,.91,1.55,1.79,1.79,0,0,1-.72,1.46,2.43,2.43,0,0,1-1.54.52,2.51,2.51,0,0,1-2.16-1l.63-.45a1.66,1.66,0,0,0,1.56.83,1.64,1.64,0,0,0,1-.32,1.11,1.11,0,0,0,.47-.93,1.26,1.26,0,0,0-.91-1.18l-1.69-.63a1.65,1.65,0,0,1-.91-1.56,1.76,1.76,0,0,1,.69-1.47,2.68,2.68,0,0,1,3.46.36Z" transform="translate(-0.3 0.02)"/><path class="cls-1" d="M71,17.62v.58H69.66v2.67a.92.92,0,0,0,.18.66.63.63,0,0,0,.47.15,1.36,1.36,0,0,0,.66-.17l0,.59a2.06,2.06,0,0,1-.86.16Q69,22.26,69,21.05V18.2h-1v-.58h1V16.34h.64v1.28Z" transform="translate(-0.3 0.02)"/><path class="cls-1" d="M74.43,19.37h.32v-.12a1,1,0,0,0-1.16-1.17,2,2,0,0,0-1.38.53l-.39-.45a2.55,2.55,0,0,1,1.92-.66,1.71,1.71,0,0,1,1.16.39,1.54,1.54,0,0,1,.49,1.22v2a6.4,6.4,0,0,0,.08,1h-.64a4.29,4.29,0,0,1-.06-.74h0a1.91,1.91,0,0,1-2.66.52,1.2,1.2,0,0,1-.47-1,1.34,1.34,0,0,1,1-1.33A5.46,5.46,0,0,1,74.43,19.37Zm.32.52h-.33q-2.11,0-2.11,1a.72.72,0,0,0,.34.64,1.28,1.28,0,0,0,.73.19,1.29,1.29,0,0,0,1-.43,1.54,1.54,0,0,0,.34-1Z" transform="translate(-0.3 0.02)"/><path class="cls-1" d="M76.92,22.14V19q0-.1,0-1.41h.63v.84h0A1.44,1.44,0,0,1,78,17.8a1.57,1.57,0,0,1,1-.3,1.73,1.73,0,0,1,.47.06l-.13.63a1.07,1.07,0,0,0-.37,0,1.29,1.29,0,0,0-1.06.49,1.5,1.5,0,0,0-.34,1v2.55Z" transform="translate(-0.3 0.02)"/><path class="cls-1" d="M82.41,17.62v.58H81.1v2.67a.92.92,0,0,0,.18.66.63.63,0,0,0,.47.15,1.36,1.36,0,0,0,.66-.17l0,.59a2.06,2.06,0,0,1-.86.16q-1.12,0-1.12-1.21V18.2h-1v-.58h1V16.34h.64v1.28Z" transform="translate(-0.3 0.02)"/><path class="cls-1" d="M86.25,18.31l-.57.38a1,1,0,0,0-1-.61,1.23,1.23,0,0,0-.64.15.58.58,0,0,0-.3.52.54.54,0,0,0,.22.46,2.11,2.11,0,0,0,.67.25l.65.15a1.56,1.56,0,0,1,.79.44,1.12,1.12,0,0,1,.31.79,1.21,1.21,0,0,1-.55,1.06,2.08,2.08,0,0,1-1.21.33,2,2,0,0,1-1.74-.88l.55-.38a1.35,1.35,0,0,0,1.19.68,1.33,1.33,0,0,0,.73-.18.63.63,0,0,0,.34-.57q0-.52-.86-.73l-.62-.15q-1.16-.27-1.16-1.19a1.19,1.19,0,0,1,.52-1,1.92,1.92,0,0,1,1.15-.33A1.52,1.52,0,0,1,86.25,18.31Z" transform="translate(-0.3 0.02)"/><path class="cls-1" d="M90.32,22.14V15.3H91v3h3.73v-3h.7v6.85h-.7V18.9H91v3.24Z" transform="translate(-0.3 0.02)"/><path class="cls-1" d="M101.29,20.06H97.54a1.8,1.8,0,0,0,.52,1.16,1.53,1.53,0,0,0,1.13.47,1.58,1.58,0,0,0,1.44-.78l.49.41a2.36,2.36,0,0,1-1.94,1,2.25,2.25,0,0,1-1.67-.68,2.51,2.51,0,0,1,0-3.4,2.17,2.17,0,0,1,1.62-.68,2,2,0,0,1,1.6.67,2.28,2.28,0,0,1,.57,1.6Zm-3.75-.52h3.06a1.43,1.43,0,0,0-.4-1.05,1.45,1.45,0,0,0-1.07-.4,1.58,1.58,0,0,0-1.1.45A1.34,1.34,0,0,0,97.54,19.53Z" transform="translate(-0.3 0.02)"/><path class="cls-1" d="M102.52,22.14V19q0-.1,0-1.41h.63v.84h0a1.44,1.44,0,0,1,.49-.66,1.57,1.57,0,0,1,1-.3,1.73,1.73,0,0,1,.47.06l-.13.63a1.08,1.08,0,0,0-.37,0,1.29,1.29,0,0,0-1.06.49,1.5,1.5,0,0,0-.34,1v2.55Z" transform="translate(-0.3 0.02)"/><path class="cls-1" d="M109.7,20.06H106a1.8,1.8,0,0,0,.52,1.16,1.53,1.53,0,0,0,1.13.47A1.58,1.58,0,0,0,109,20.9l.49.41a2.36,2.36,0,0,1-1.94,1,2.25,2.25,0,0,1-1.67-.68,2.51,2.51,0,0,1,0-3.4,2.17,2.17,0,0,1,1.62-.68,2,2,0,0,1,1.6.67,2.28,2.28,0,0,1,.57,1.6ZM106,19.53H109a1.43,1.43,0,0,0-.4-1.05,1.45,1.45,0,0,0-1.07-.4,1.58,1.58,0,0,0-1.1.45A1.34,1.34,0,0,0,106,19.53Z" transform="translate(-0.3 0.02)"/><path class="cls-2" d="M.3,9.59V.22H6.59V2.12H2.37V4h3.9V5.93H2.37V9.59Z" transform="translate(-0.3 0.02)"/><path class="cls-2" d="M9.27,9.59V.22h3.63q3.53,0,3.53,2.85a2.69,2.69,0,0,1-.52,1.68,2.33,2.33,0,0,1-1.51.89l2.38,4H14.31l-2-3.75h-1V9.59ZM11.33,2V4.09h1.22a3.29,3.29,0,0,0,1.15-.15.87.87,0,0,0,.58-.9Q14.28,2,12.68,2Z" transform="translate(-0.3 0.02)"/><path class="cls-2" d="M19.11,9.59V.22h6.37V2.12h-4.3V3.87h4.06V5.78H21.18V7.68h4.54V9.59Z" transform="translate(-0.3 0.02)"/><path class="cls-2" d="M28.64,9.59V.22H35V2.12h-4.3V3.87h4.06V5.78H30.71V7.68h4.54V9.59Z" transform="translate(-0.3 0.02)"/><path class="cls-2" d="M38.09,9.59V.22h3.12l2.16,6.12h0L45.57.22h3.11V9.59H46.62V2.4L44.14,9.59H42.55L40.16,2.4V9.59Z" transform="translate(-0.3 0.02)"/><path class="cls-2" d="M50.81,9.59,54.86.22h1.71l4.08,9.37H58.32l-.81-2H53.87l-.78,2Zm6-3.73L55.66,2.94,54.52,5.86Z" transform="translate(-0.3 0.02)"/><path class="cls-2" d="M62.78,9.59V.22H65.6l4,6.51V.22h2.07V9.59H69L64.84,2.92V9.59Z" transform="translate(-0.3 0.02)"/><path class="cls-2" d="M87.58,1.35,86,2.65a2.2,2.2,0,0,0-1.77-.77,2.5,2.5,0,0,0-1.95.85,3.11,3.11,0,0,0-.77,2.16,3.14,3.14,0,0,0,.76,2.16,2.42,2.42,0,0,0,1.89.86,2.19,2.19,0,0,0,1.93-1L87.81,8.2A3.63,3.63,0,0,1,86.3,9.43a4.49,4.49,0,0,1-1.88.4,5.06,5.06,0,0,1-3.64-1.35A4.71,4.71,0,0,1,79.36,4.9a4.71,4.71,0,0,1,1.42-3.57A5.06,5.06,0,0,1,84.42,0,3.76,3.76,0,0,1,87.58,1.35Z" transform="translate(-0.3 0.02)"/><path class="cls-2" d="M89.16,9.59,93.21.22h1.71L99,9.59H96.66l-.81-2H92.22l-.78,2Zm6-3.73L94,2.94,92.87,5.86Z" transform="translate(-0.3 0.02)"/><path class="cls-2" d="M101.13,9.59V.22h3.48q3.56,0,3.56,2.85T104.7,5.93h-1.51V9.59ZM103.19,2V4.19h1.38q1.46,0,1.46-1.13T104.25,2Z" transform="translate(-0.3 0.02)"/><path class="cls-2" d="M110.63,9.59V.22h2.06V9.59Z" transform="translate(-0.3 0.02)"/><path class="cls-2" d="M117.58,9.59V2H114.9V.22h7.41V2h-2.67V9.59Z" transform="translate(-0.3 0.02)"/><path class="cls-2" d="M122.37,9.59,126.42.22h1.71l4.08,9.37h-2.33l-.81-2h-3.64l-.78,2Zm6-3.73-1.15-2.91-1.14,2.91Z" transform="translate(-0.3 0.02)"/><path class="cls-2" d="M134.41,9.59V.22h2.06V7.68h3.83V9.59Z" transform="translate(-0.3 0.02)"/></svg>