<svg id="Layer_1" data-name="Layer 1" xmlns="http://www.w3.org/2000/svg" viewBox="0 0 139 22.18"><defs><style>.cls-1{fill:#6d6e70;}.cls-2{fill:#404041;}</style></defs><title>freeman-text-dark</title><path class="cls-1" d="M29.76,15.93l1.63,5.82h0l1.71-5.82h.83l1.71,5.82h0l1.61-5.82h.77l-2,6.8h-.81l-1.71-5.82h0L31.8,22.73H31l-2-6.8Z" transform="translate(0.09 -0.72)"/><path class="cls-1" d="M42.76,20.66H39a1.79,1.79,0,0,0,.52,1.15,1.52,1.52,0,0,0,1.12.47,1.57,1.57,0,0,0,1.43-.78l.49.4a2.35,2.35,0,0,1-1.93,1A2.24,2.24,0,0,1,39,22.17a2.49,2.49,0,0,1,0-3.38,2.15,2.15,0,0,1,1.61-.68,2,2,0,0,1,1.58.66,2.27,2.27,0,0,1,.57,1.58ZM39,20.14h3a1.42,1.42,0,0,0-.39-1,1.44,1.44,0,0,0-1.07-.39,1.57,1.57,0,0,0-1.09.44A1.33,1.33,0,0,0,39,20.14Z" transform="translate(0.09 -0.72)"/><path class="cls-1" d="M46.48,20h.32v-.12a1,1,0,0,0-1.15-1.16,2,2,0,0,0-1.37.53l-.38-.45a2.54,2.54,0,0,1,1.9-.65,1.69,1.69,0,0,1,1.15.38,1.53,1.53,0,0,1,.49,1.21v2a6.35,6.35,0,0,0,.08,1h-.63a4.2,4.2,0,0,1-.06-.73h0a1.9,1.9,0,0,1-2.64.52,1.19,1.19,0,0,1-.47-1,1.33,1.33,0,0,1,1-1.33A5.42,5.42,0,0,1,46.48,20Zm.32.52h-.33q-2.09,0-2.09,1a.71.71,0,0,0,.34.63,1.46,1.46,0,0,0,1.75-.23,1.53,1.53,0,0,0,.34-1Z" transform="translate(0.09 -0.72)"/><path class="cls-1" d="M49.67,15.47v7.26H49V15.47Z" transform="translate(0.09 -0.72)"/><path class="cls-1" d="M53.52,18.24v.58h-1.3v2.65a.92.92,0,0,0,.18.65.62.62,0,0,0,.47.15,1.35,1.35,0,0,0,.65-.17l0,.59a2,2,0,0,1-.85.16q-1.11,0-1.11-1.2V18.81h-1v-.58h1V17h.63v1.27Z" transform="translate(0.09 -0.72)"/><path class="cls-1" d="M54.4,22.73V15.47H55V19a1.63,1.63,0,0,1,.64-.6,1.79,1.79,0,0,1,.88-.23,1.53,1.53,0,0,1,1.7,1.76v2.85h-.63V20.24a2,2,0,0,0-.27-1.17,1.09,1.09,0,0,0-1-.38,1.25,1.25,0,0,0-.73.25A1.67,1.67,0,0,0,55,20.43v2.31Z" transform="translate(0.09 -0.72)"/><path class="cls-1" d="M66.45,16.59l-.61.47a1.48,1.48,0,0,0-1.32-.66,1.62,1.62,0,0,0-1,.3,1.09,1.09,0,0,0-.46.93,1.23,1.23,0,0,0,.9,1.13l1.68.64a1.64,1.64,0,0,1,.9,1.54,1.78,1.78,0,0,1-.71,1.45,2.41,2.41,0,0,1-1.53.52,2.49,2.49,0,0,1-2.14-1l.62-.45a1.65,1.65,0,0,0,1.55.83,1.63,1.63,0,0,0,1-.32,1.1,1.1,0,0,0,.47-.92,1.25,1.25,0,0,0-.9-1.17l-1.68-.62a1.64,1.64,0,0,1-.9-1.55A1.74,1.74,0,0,1,63,16.23a2.66,2.66,0,0,1,3.44.36Z" transform="translate(0.09 -0.72)"/><path class="cls-1" d="M70.06,18.24v.58h-1.3v2.65a.92.92,0,0,0,.18.65.62.62,0,0,0,.47.15,1.35,1.35,0,0,0,.65-.17l0,.59a2,2,0,0,1-.85.16q-1.11,0-1.11-1.2V18.81h-1v-.58h1V17h.63v1.27Z" transform="translate(0.09 -0.72)"/><path class="cls-1" d="M73.5,20h.32v-.12a1,1,0,0,0-1.15-1.16,2,2,0,0,0-1.37.53l-.38-.45a2.54,2.54,0,0,1,1.9-.65,1.69,1.69,0,0,1,1.15.38,1.53,1.53,0,0,1,.49,1.21v2a6.36,6.36,0,0,0,.08,1H73.9a4.26,4.26,0,0,1-.06-.73h0a1.9,1.9,0,0,1-2.64.52,1.19,1.19,0,0,1-.47-1,1.33,1.33,0,0,1,1-1.33A5.42,5.42,0,0,1,73.5,20Zm.32.52h-.33q-2.09,0-2.09,1a.71.71,0,0,0,.34.63,1.27,1.27,0,0,0,.72.19,1.28,1.28,0,0,0,1-.42,1.53,1.53,0,0,0,.34-1Z" transform="translate(0.09 -0.72)"/><path class="cls-1" d="M76,22.73V19.64q0-.1,0-1.4h.62v.84h0a1.43,1.43,0,0,1,.49-.65,1.56,1.56,0,0,1,1-.3,1.71,1.71,0,0,1,.47.06l-.12.62a1.07,1.07,0,0,0-.36,0,1.29,1.29,0,0,0-1.06.49,1.49,1.49,0,0,0-.34,1v2.54Z" transform="translate(0.09 -0.72)"/><path class="cls-1" d="M81.42,18.24v.58h-1.3v2.65a.92.92,0,0,0,.18.65.62.62,0,0,0,.47.15,1.35,1.35,0,0,0,.65-.17l0,.59a2,2,0,0,1-.86.16q-1.11,0-1.11-1.2V18.81h-1v-.58h1V17h.63v1.27Z" transform="translate(0.09 -0.72)"/><path class="cls-1" d="M85.24,18.93l-.57.37a1,1,0,0,0-1-.61,1.22,1.22,0,0,0-.63.15.58.58,0,0,0-.3.52.54.54,0,0,0,.22.46,2.09,2.09,0,0,0,.66.25l.64.15a1.55,1.55,0,0,1,.79.44,1.11,1.11,0,0,1,.31.79,1.21,1.21,0,0,1-.55,1.06,2.06,2.06,0,0,1-1.2.33A2,2,0,0,1,81.91,22l.55-.37a1.34,1.34,0,0,0,1.18.67,1.32,1.32,0,0,0,.72-.18.63.63,0,0,0,.34-.57q0-.52-.85-.72l-.61-.14q-1.15-.27-1.15-1.18a1.18,1.18,0,0,1,.52-1,1.9,1.9,0,0,1,1.14-.33A1.51,1.51,0,0,1,85.24,18.93Z" transform="translate(0.09 -0.72)"/><path class="cls-1" d="M89.28,22.73v-6.8H90v2.95h3.71V15.93h.69v6.8h-.69V19.51H90v3.22Z" transform="translate(0.09 -0.72)"/><path class="cls-1" d="M100.17,20.66H96.44A1.79,1.79,0,0,0,97,21.8a1.52,1.52,0,0,0,1.12.47,1.57,1.57,0,0,0,1.43-.78l.49.4a2.35,2.35,0,0,1-1.93,1,2.24,2.24,0,0,1-1.66-.67,2.5,2.5,0,0,1,0-3.38A2.15,2.15,0,0,1,98,18.12a2,2,0,0,1,1.58.66,2.27,2.27,0,0,1,.57,1.58Zm-3.73-.52h3a1.42,1.42,0,0,0-.39-1A1.44,1.44,0,0,0,98,18.7a1.57,1.57,0,0,0-1.09.44A1.33,1.33,0,0,0,96.44,20.14Z" transform="translate(0.09 -0.72)"/><path class="cls-1" d="M101.39,22.73V19.64q0-.1,0-1.4H102v.84h0a1.43,1.43,0,0,1,.49-.65,1.56,1.56,0,0,1,1-.3,1.71,1.71,0,0,1,.47.06l-.12.62a1.07,1.07,0,0,0-.36,0,1.29,1.29,0,0,0-1.06.49,1.49,1.49,0,0,0-.34,1v2.54Z" transform="translate(0.09 -0.72)"/><path class="cls-1" d="M108.52,20.66H104.8a1.79,1.79,0,0,0,.52,1.15,1.52,1.52,0,0,0,1.12.47,1.57,1.57,0,0,0,1.43-.78l.49.4a2.35,2.35,0,0,1-1.93,1,2.24,2.24,0,0,1-1.66-.67,2.5,2.5,0,0,1,0-3.38,2.15,2.15,0,0,1,1.61-.68,2,2,0,0,1,1.58.66,2.27,2.27,0,0,1,.57,1.58Zm-3.73-.52h3a1.42,1.42,0,0,0-.39-1,1.44,1.44,0,0,0-1.07-.39,1.57,1.57,0,0,0-1.09.44A1.33,1.33,0,0,0,104.8,20.14Z" transform="translate(0.09 -0.72)"/><path class="cls-2" d="M-.09,10.26V1H6.15V2.85H2V4.75H5.83V6.64H2v3.63Z" transform="translate(0.09 -0.72)"/><path class="cls-2" d="M8.8,10.26V1h3.6q3.51,0,3.51,2.83a2.67,2.67,0,0,1-.51,1.67,2.31,2.31,0,0,1-1.5.88l2.37,3.93H13.81L11.86,6.55h-1v3.72Zm2.05-7.57V4.81h1.21a3.27,3.27,0,0,0,1.14-.14.87.87,0,0,0,.58-.89q0-1.08-1.59-1.08Z" transform="translate(0.09 -0.72)"/><path class="cls-2" d="M18.58,10.26V1H24.9V2.85H20.63V4.59h4V6.48h-4V8.37h4.51v1.89Z" transform="translate(0.09 -0.72)"/><path class="cls-2" d="M28,10.26V1h6.32V2.85H30.09V4.59h4V6.48h-4V8.37H34.6v1.89Z" transform="translate(0.09 -0.72)"/><path class="cls-2" d="M37.43,10.26V1h3.1L42.67,7h0L44.85,1h3.09v9.3H45.89V3.13l-2.46,7.14H41.85L39.48,3.13v7.14Z" transform="translate(0.09 -0.72)"/><path class="cls-2" d="M50.05,10.26l4-9.3h1.7l4,9.3H57.51l-.8-2H53.09l-.78,2Zm6-3.71L54.86,3.67,53.73,6.56Z" transform="translate(0.09 -0.72)"/><path class="cls-2" d="M61.93,10.26V1h2.8l4,6.47V1h2.05v9.3H68.06L64,3.64v6.62Z" transform="translate(0.09 -0.72)"/><path class="cls-2" d="M86.56,2.09,85,3.38a2.18,2.18,0,0,0-1.76-.76,2.48,2.48,0,0,0-1.93.85,3.09,3.09,0,0,0-.76,2.15,3.11,3.11,0,0,0,.76,2.14,2.4,2.4,0,0,0,1.87.85,2.17,2.17,0,0,0,1.92-1l1.71,1.27a3.6,3.6,0,0,1-1.5,1.22,4.46,4.46,0,0,1-1.87.39,5,5,0,0,1-3.61-1.34A4.67,4.67,0,0,1,78.4,5.61a4.67,4.67,0,0,1,1.41-3.55A5,5,0,0,1,83.42.72,3.74,3.74,0,0,1,86.56,2.09Z" transform="translate(0.09 -0.72)"/><path class="cls-2" d="M88.13,10.26l4-9.3h1.7l4,9.3H95.58l-.8-2H91.16l-.78,2Zm6-3.71L92.94,3.67,91.81,6.56Z" transform="translate(0.09 -0.72)"/><path class="cls-2" d="M100,10.26V1h3.46Q107,1,107,3.79t-3.44,2.85h-1.5v3.63Zm2-7.57V4.9h1.37q1.45,0,1.45-1.12t-1.76-1.09Z" transform="translate(0.09 -0.72)"/><path class="cls-2" d="M109.44,10.26V1h2v9.3Z" transform="translate(0.09 -0.72)"/><path class="cls-2" d="M116.34,10.26V2.77h-2.65V1H121V2.77h-2.65v7.49Z" transform="translate(0.09 -0.72)"/><path class="cls-2" d="M121.1,10.26l4-9.3h1.7l4,9.3h-2.31l-.8-2h-3.61l-.78,2Zm6-3.71-1.14-2.89-1.13,2.89Z" transform="translate(0.09 -0.72)"/><path class="cls-2" d="M133.06,10.26V1h2V8.37h3.8v1.89Z" transform="translate(0.09 -0.72)"/></svg>